<?xml version="1.0" encoding="utf-8"?>
<!-- Generator: Adobe Illustrator 25.0.0, SVG Export Plug-In . SVG Version: 6.00 Build 0)  -->
<svg version="1.1" id="Capa_1" xmlns="http://www.w3.org/2000/svg" xmlns:xlink="http://www.w3.org/1999/xlink" x="0px" y="0px"
	 viewBox="0 0 1067 601" style="enable-background:new 0 0 1067 601;" xml:space="preserve">
<style type="text/css">
	.st0{fill:#A6032F;}
</style>
<g>
	<g>
		<g>
			<g>
				<path class="st0" d="M590.1,335.2c0.8,0,1.6,0,2.5,0c4.7-0.4,12.3-3.1,11.2-16.9c-0.3-4.2-0.9-8.5-1.5-12.6
					c-0.6-4.1-1.1-8-1.4-11.9c-3.1-38.6,0.1-38.1,4.4-93.3l0.8-9.9c0.3-3.8,0.7-9.2,1.1-15.5c1.9-28,2.6-36.8,6.9-48.6
					c3.2-8.8,5-7.2,30.9-10.7c12.8-1.7,23.8-3.2,29.7-4.7c11.9-3,15.6-10.3,15.2-15.5c-0.3-3.6-2.4-6.8-5.9-8.9
					c-3.5-2.2-8.3-3.1-13.8-2.6c-7.3,0.6-26.4,1.9-45.2,8.4c-6.6,2.3-6.5,1.3-6.8-2.4c-0.4-5,0.6-11.2,1.5-16.7
					c0.7-4.7,1.4-8.8,1.2-11.7c-0.8-9.5-6.9-16.6-14-16c-2.3,0.2-5.7,1.3-8.9,5.5c-5.5,7.8-5.4,16.9-5.3,24.9
					c0.1,11.9-6.9,23.1-16.9,24.9c-13.2,2.4-26.8,4.9-40.7,10.7c-9.9,4.4-15.9,12.1-15.3,19.6c0.7,8.5,5.8,12.9,14.4,12.2
					c11-0.9,21.4-5,32.3-9.3c2.9-1.2,5.5-3,8-4.9c2.2-1.7,4.3-4,6.8-5.2c1.2-0.6,2.8-1,3.7,0.2c0.6,0.7,0.7,1.7,0.8,2.6
					c0.6,5.9-0.7,11.7-1.3,17.6c-0.5,5.1-1,10.3-1.5,15.4c-1.1,11.4-2.2,22.9-3.3,34.3c-0.3,3.2-0.6,6.4-0.9,9.7
					c-0.1,1.6-0.3,3.2-0.4,4.8c-0.1,0.8-0.1,1.6-0.2,2.4c0,0.3,0,2.3-0.2,2.4c-3.1,1.9-7.2,4.9-12.6,8.9
					c-12.3,9.2-29.2,21.8-40.6,22.7c-6.4,0.5-8.7-5.7-13.9-21c-0.7-2-1.4-4.1-2.2-6.4c-6.2-17-15.3-25.9-25.6-25.1
					c-22,1.8-37.7,28.4-49.1,47.9c-5,8.6-10.7,18.2-14.3,20.3c0,0,0-0.1,0-0.1c-0.6-7.4,4-22.5,8-35.9c4-13.3,7.8-25.8,7.3-32.3
					c-0.7-8.4-6.2-13.9-13.3-13.3c-11.1,0.9-13.8,12.3-15.5,19.9c-0.2,1-0.5,2-0.7,2.9c-1.8,6.8-4.7,18.1-7.4,30.8
					c-2.9,1.6-5.3,3.9-7,6c-1.7,2-3.6,4.4-5.8,7c-12.7,15.6-34,41.7-53,43.2c-0.8,0.1-2.2,0.2-3.4-3c-1-2.6-1.3-6.1-1.6-9.3
					c-0.8-10.4,0.8-19.5,2.5-28.2c1.5-8.4,3-16.3,2.3-25.1c-0.6-6.9-6-13.7-14.1-13c-7.1,0.6-11.1,7.9-14.6,14.4
					c-2.6,4.7-5.2,9.6-8,9.8c-1.3,0.1-3.6-1.2-6.1-2.6c-4.9-2.8-11.6-6.5-20.5-5.8c-30.2,2.4-53.2,48.2-51.1,74.6
					c0.6,6.9,2.8,12.8,6.4,16.9c3.2,3.6,7.3,5.6,11.8,6c0.9,0.1,1.8,0,2.7,0c17.8-1.4,41.4-24.2,50.1-35c0.4-0.5,1-1.3,1.6-2.2
					c1.7-2.4,7-9.8,9.4-10c1.6,0.9,2.8,9.1,3.3,13c0.5,3.7,1,7,1.8,9.1c6,16.4,17.2,19.1,25.6,18.4c19.1-1.5,43.3-21.2,60.8-38.2
					c-0.3,4.8-0.3,9.2,0.1,13.2c0.3,4,1.2,9.6,3.8,14.2c2.8,5.1,6.4,6.6,9.4,6.8c0.6,0,1.1,0,1.6,0c12.3-1,28.1-21.6,39.1-38.8
					c1.8-2.7,3.9-6.8,6.5-11.6c6.9-13.1,18.5-35.1,27.9-35.9c3.7-0.3,7,7.8,10,16.2c6.8,18.6,15.2,30.7,34,29.2
					c11.3-0.9,30.8-10.2,45-18.9c2.1-1.3,4.4-2.7,6.8-4.4c-3.5,46.8-3.4,25-0.8,56.8l0.3,3.4C575.3,316.4,576.7,334.3,590.1,335.2z
					 M277.1,257.3c0.2,2.4-4.4,10.1-13.3,19.5c-8.4,8.9-15.7,14.1-18.9,14.9c-0.5-6,2.7-15,8.1-22.9c5.5-8.1,12.2-13.5,17.3-13.9
					c0.6-0.1,1.3-0.1,1.9,0C275,255.1,277.1,256.2,277.1,257.3z"/>
				<path class="st0" d="M229.4,101.2l-0.7-0.5c0.1-0.4,0.5-0.7,1-1.4l3,0.8c1.9,0.3,3.6-0.3,3.9-2.6c0.2-1.6-0.8-2.9-2.2-3.5
					l-1.6-0.2c0,0,3.3-0.7,4-3c0.1-0.8-0.1-2-0.4-2.4l1.6,0.2c1.9,0.3,3.5,0.1,3.9-2.6c0.2-1.6-0.7-3.3-2.2-3.5l-1.2-0.2
					c1.6-0.2,2.6-1.2,3.1-2.3c0.1-0.8,0.2-1.2-0.2-1.6c2.3,0.3,2.9-1.1,3.2-2.7c0.2-1.6-0.4-2.8-1.9-3.4l-2.3-0.7
					c1.2-0.2,2.2-1.3,2.7-2.4c0.1-0.8-0.2-1.6-0.1-2c1.2-0.2,2.2-1.3,2.4-2.8c0.2-1.5-0.8-2.9-2.2-3.5l-6.8-2.2
					c1.3-11.3-4.3-27.1-20.1-29.5c-19.7-2.9-58.3,20.2-64.6,62.7c-2.2,15.1-65.9,32.6-72.4,76.3c-4.3,29-10.3,64.4-11.9,69.7
					c-1.8,6.5-6.2,10.1-12.5,52.6c-2.7,18.2-5.8,44.2-9.2,80.8l-0.7,5l-1.7,0.9L34.8,434c-1.8,1.3-3.2,3.1-3.6,5.4L24,488.1
					c-0.3,2.3,0.5,4.4,1.9,5.8l-2.1,13.9c7.9,8.3,15.8,10.6,25.1,12c14.7,2.2,49.3,3.4,50.1,0.7l3.7-24.7c6.6-2.2,10.9-6.7,10.9-6.7
					l13.8-92.8c-4.2-3.8-12.1-9.3-12.1-9.3l0.8-5.4c6.2-4.6,6.1-11.7,12.7-13.9c7.1-2.5,62.6-11.7,71.6-72.3
					c6.6-44.8-16.9-70.1-18.1-72.2c-0.6-1.3-5.5-5.6-10.1-6.2c-4.2-0.6-6.6,2.2-7.2,5.6c-0.2,1.6,1.5,21.9,6.8,29.1
					c-0.8,0.3-11.8,10.1-12.9,17.8c-0.8,5.4,0.3,11.5,1,14.4c0,0-0.8,3-2,5.6c-1.6,2.5-21.1,22.2-21.1,22.2s-3.9,5-5.8,4.7
					c-4.6-0.7,1.4-46.4-1.5-48.8c-2-2.3-5.8-32.5-5.9-45.5c0.1-6.3,0-15.8,1.8-27.8c2-13.5,73.9-54,85.1-73.7
					c0.4-0.3,0.5-0.7,0.6-1.1l2.2,1.1c0.3,0.4,0.7,0.5,1.1,0.6c1.6,0.2,3.3-1.1,3.6-2.6c0.2-1.6-0.4-2.8-1.4-3.8l2.2,1.1
					c2.3,0.3,4.4-0.1,4.6-2.1c0.2-1.2-0.2-1.6-0.8-2.5c1.2-0.2,2.6-1.2,2.7-2.4s-0.2-1.6-0.8-2.5c0,0,0.1-0.4,0.4-0.3l2.2,1.1
					c2.3,0.3,4-0.6,4.3-2.5C231.5,103.1,230.9,101.8,229.4,101.2z"/>
				<path class="st0" d="M939.8,301.2l0.4,6.9c0.3,0.3,0.7,0.3,0.7,0.3l0.3,5c-1.4,4.7-1.7,10.4-1.3,16c0.6,9.2,2.8,18.1,2.9,19.7
					c0.8,12.9-2.1,14.4-1.3,26.6c0.3,4.6,0.9,9.2,1.5,13.5l1.8,28.4c0.5,8.3,7.5,14.5,15.8,13.9l31.7-2c8.3-0.5,14.1-7.5,13.9-15.8
					l-0.7-16.2l13.9-5.9l-5-80.3c-2.8-2.8-16.2-4-16.2-4c1.3-1.1,1-10.7,0.5-18c-0.8-12.6-1.4-11.5-2.5-13.5l-1.2-50
					c0.9-1.1,1.1-3.1,1-4.7c-0.1-2-0.6-3.6-0.6-3.6l-2.9-31c0.6-0.4,0.3-1,0.6-1.4l0-0.7c0.3-0.7,0.6-1.4,0.5-2.4
					c-0.1-1.6-1.2-3.6-1.9-4.2l-1.7-22.1c0.6-0.4,0.3-1,0.9-2.1l0-0.3c0.3-0.7,0.6-1.7,0.5-2.4c-0.1-1.6-1.2-3.2-2.3-4.5l-3.1-33.7
					l-2.2-2.5c0.6-1,0.9-2,0.8-2.7c-0.2-2.3-1.6-3.9-1.6-3.9s1.9-0.8,1.8-3.8c-0.2-2.6-2.9-3.8-2.9-3.8s1.7,0.2,1.5-2.1
					c-0.2-2.3-2.2-4.2-2.2-4.2c3.2-1.2,5-5.3,4.8-7.6C986,80,976.6,63,969,42.6c-3.2-8.1-11.1-13.2-20.7-12.6
					c-25.1,1.6-21.7,35.2-21.8,33.9c0.2,3,0.7,5.3,0.7,5.3l-0.9,7.3c0,0,3.3,63.5,2.3,69.2c-0.4,3.7-1.4,9.7-1.1,14.3
					c0.2,4,6,16.5,5.2,18.6l3.4,64.5c-9.2-3.4-18-16.5-21-21.9c-3.3-5.4-8.9-9.1-8.9-9.1c1.2-7.4,0.5-13.3,0.2-17.9
					c-0.5-7.9-9.2-19.3-9.2-19.7c-0.3-4.6,4.5-13.2,4.2-18.2c-0.5-8.6-5.5-18.2-5.6-20.6c-0.2-2.6,6.3-10,5.9-17.3
					c-0.5-7.6-2.4-16.4-2.4-16.4c-0.5-7.3,7.6-0.8,6.5-17.3c-0.5-7.6-5.2-14.9-11.2-14.6c-7.9,0.5-13.3,9.8-12.7,19.4
					c0.2,3.6,1.1,6.6,1.2,8.2c0.3,5-9.7,4.3-8.5,22.8c0.4,6.9,2.8,12.1,2.8,12.4c0.4,6.8-3.9,3.1-7.1,16.8c-3.7,1.8-8,7-14.7,15.4
					c-8.6,10.9-19.2,24.4-28.4,25.8c-6.1,0.9-11.2-6.9-14.3-13.6c-3.9-8.3-6.7-18.7-7.7-25.2c-0.5-3.2-0.9-11.4-0.3-19
					c0.8-10.4,3.1-13,3.7-13.1c0.8,0.2,2.6,2.2,3.9,3.6c3.2,3.6,7.7,8.5,13.6,7.6c7.7-1.1,11.3-8.6,9.6-19.8
					c-2.4-16.1-12.9-26.5-25.1-24.6c-12.9,1.9-22.8,11-28.6,26.1c-4.5,11.6-6.1,26.4-4.3,38.6c0.5,3.7,1.3,7.1,2.2,10.4
					c-0.2,0.2-0.3,0.4-0.5,0.6c-1.6,2.1-3.3,4.6-5.3,7.4c-11.6,16.4-31.1,43.9-50,46.7c-0.8,0.1-2.2,0.3-3.6-2.8
					c-1.1-2.5-1.7-6-2.2-9.2c-1.5-10.3-0.5-19.5,0.5-28.3c1-8.5,1.9-16.5,0.6-25.1c-1-6.9-6.9-13.2-15-12c-7,1.1-10.5,8.6-13.6,15.3
					c-2.2,4.9-4.5,9.9-7.4,10.3c-1.3,0.2-3.7-1-6.3-2.2c-5.1-2.4-12-5.7-20.9-4.4c-13.5,2-26.5,13.2-35.7,30.7
					c-8.3,15.7-12.1,33.8-10.1,47.2c1,6.9,3.6,12.5,7.5,16.4c3.4,3.4,7.7,5.1,12.2,5.1c0.9,0,1.8-0.1,2.7-0.2
					c17.7-2.6,39.7-27,47.5-38.3c0.4-0.5,0.9-1.4,1.5-2.4c1.6-2.5,6.3-10.3,8.7-10.6c1.7,0.8,3.4,8.9,4.2,12.7
					c0.8,3.7,1.5,6.9,2.4,8.9c7.1,16,18.5,17.9,26.8,16.6c23.1-3.5,51.8-34.3,67.7-53.4c0.8,1.5,1.6,2.9,2.3,4.3
					c3.7,6.8,7,12.7,7.7,17.8c1.9,12.5-7.2,27.4-17.8,44.6c-13.9,22.7-29.7,48.5-25.3,77.6c0.8,5.3,2.7,9.4,5.5,12.1
					c2.7,2.5,6.2,3.8,10.4,3.8c1.1,0,2.3-0.1,3.5-0.3c27.6-4.1,50.1-35.5,59.4-63c5.6-16.6,5.7-29.4,5.7-40.7
					c0.1-14.7,0.1-26.4,11.5-41.8c3.9-5.3,8.5-10.4,13.1-15.4c-0.8,3.6-1.1,7.9-0.8,13.4c0.7,10.6,8.4,17.4,8.4,17.4
					c-1.3,0.4-2.4,4.1-2,10.1c1.6,25.8,31,50.1,39.8,58.2C921.5,296.1,939.1,290,939.8,301.2z M812.8,260.9c0.4,0.4,1.2,1.8,1.5,3.7
					c0.9,5.8-3.3,18.3-10.3,31c-6.9,12.3-13.2,19.3-17,21.4C787.7,305,806.8,263.2,812.8,260.9z M667.2,188.7
					c0.4,2.4-3.7,10.4-12,20.4c-7.8,9.4-14.7,15.1-17.9,16.2c-1.8-12.1,11.4-36.7,22.9-38.5c0.6-0.1,1.2-0.1,1.8-0.1
					C664.9,186.7,667,187.7,667.2,188.7z"/>
			</g>
		</g>
		<g>
			<g>
				<path class="st0" d="M617.6,511c-2.1-1.6-4.4-3-7-4.1c-2.6-1.1-5.1-2.1-7.6-3c-2.2-0.7-4.5-1.6-6.8-2.6c-2.3-1-4.4-2.2-6.3-3.6
					c-1.9-1.4-3.5-3-4.7-4.7c-1.2-1.8-1.8-3.8-1.8-6.1c0-2.6,0.5-5,1.5-7.2s2.4-4,4.1-5.6c1.8-1.6,3.8-2.8,6.2-3.7s5-1.3,7.7-1.3
					c4,0,7.6,0.9,10.8,2.7c3.3,1.8,5.7,4.6,7.4,8.3l3.1-1.3c-1.9-4.4-4.8-7.6-8.6-9.8c-3.8-2.1-8.1-3.2-12.7-3.2
					c-3.2,0-6.2,0.5-9,1.5s-5.2,2.5-7.2,4.3s-3.7,4.1-4.8,6.7c-1.2,2.6-1.8,5.4-1.8,8.5c0,2.9,0.7,5.3,2,7.5c1.3,2.1,3.1,4,5.2,5.6
					c2.1,1.6,4.4,3,7,4.1c2.6,1.1,5.1,2.1,7.6,3c2.2,0.8,4.5,1.7,6.8,2.7s4.4,2.2,6.3,3.6c1.9,1.4,3.5,3,4.7,4.8
					c1.2,1.8,1.8,3.8,1.8,6.1c0,2.6-0.5,5-1.5,7.2s-2.4,4-4.1,5.6c-1.8,1.6-3.8,2.8-6.2,3.7c-2.4,0.9-5,1.3-7.7,1.3
					c-4,0-7.6-0.9-10.8-2.7c-3.3-1.8-5.7-4.6-7.4-8.3l-3.1,1.3c1.9,4.4,4.8,7.7,8.6,9.8c3.8,2.1,8,3.2,12.7,3.2c3.2,0,6.2-0.5,9-1.5
					c2.8-1,5.2-2.5,7.2-4.3c2-1.9,3.7-4.1,4.8-6.7c1.2-2.6,1.8-5.4,1.8-8.5c0-2.8-0.7-5.3-2-7.5C621.4,514.5,619.7,512.6,617.6,511z
					"/>
				<path class="st0" d="M824.3,511c-2.1-1.6-4.4-3-7-4.1c-2.6-1.1-5.1-2.1-7.6-3c-2.2-0.7-4.5-1.6-6.8-2.6c-2.3-1-4.4-2.2-6.3-3.6
					c-1.9-1.4-3.5-3-4.7-4.7c-1.2-1.8-1.8-3.8-1.8-6.1c0-2.6,0.5-5,1.5-7.2s2.4-4,4.1-5.6c1.8-1.6,3.8-2.8,6.2-3.7s5-1.3,7.7-1.3
					c4,0,7.6,0.9,10.8,2.7c3.3,1.8,5.7,4.6,7.4,8.3l3.1-1.3c-1.9-4.4-4.8-7.6-8.6-9.8c-3.8-2.1-8.1-3.2-12.7-3.2
					c-3.2,0-6.2,0.5-9,1.5s-5.2,2.5-7.2,4.3s-3.7,4.1-4.8,6.7c-1.2,2.6-1.8,5.4-1.8,8.5c0,2.9,0.7,5.3,2,7.5c1.3,2.1,3.1,4,5.2,5.6
					c2.1,1.6,4.4,3,7,4.1c2.6,1.1,5.1,2.1,7.6,3c2.2,0.8,4.5,1.7,6.8,2.7s4.4,2.2,6.3,3.6c1.9,1.4,3.5,3,4.7,4.8
					c1.2,1.8,1.8,3.8,1.8,6.1c0,2.6-0.5,5-1.5,7.2s-2.4,4-4.1,5.6c-1.8,1.6-3.8,2.8-6.2,3.7c-2.4,0.9-5,1.3-7.7,1.3
					c-4,0-7.6-0.9-10.8-2.7c-3.3-1.8-5.7-4.6-7.4-8.3l-3.1,1.3c1.9,4.4,4.8,7.7,8.6,9.8c3.8,2.1,8,3.2,12.7,3.2c3.2,0,6.2-0.5,9-1.5
					c2.8-1,5.2-2.5,7.2-4.3c2-1.9,3.7-4.1,4.8-6.7c1.2-2.6,1.8-5.4,1.8-8.5c0-2.8-0.7-5.3-2-7.5C828.1,514.5,826.4,512.6,824.3,511z
					"/>
				<path class="st0" d="M639.8,511.5h47.3c0-3.9-0.5-7.5-1.7-10.9c-1.1-3.4-2.7-6.3-4.8-8.8s-4.7-4.5-7.7-5.9
					c-3.1-1.4-6.5-2.1-10.4-2.1c-2.5,0-5.2,0.5-8.3,1.5s-5.9,2.7-8.5,5s-4.8,5.5-6.6,9.3c-1.8,3.9-2.7,8.7-2.7,14.4
					c0,3.8,0.8,7.5,2.4,11.1s3.9,6.8,7,9.6c3.1,2.8,7,5,11.6,6.8s10,2.6,16.1,2.6c1.1,0,2.2,0,3.4-0.1c1.2-0.1,2.4-0.2,3.6-0.3v-3.3
					c-2.3,0.2-4.6,0.3-6.7,0.3c-5.8,0-10.8-0.8-15.1-2.3c-4.3-1.5-7.8-3.6-10.7-6.1s-4.9-5.4-6.3-8.6s-2.1-6.4-2.1-9.7
					c0-0.4,0-0.9,0-1.3C639.6,512.4,639.7,512,639.8,511.5z M643.2,498.9c1.5-2.6,3.3-4.8,5.4-6.6s4.3-3.1,6.8-3.9
					c2.4-0.8,4.8-1.3,7.1-1.3c3.4,0,6.5,0.7,9.1,2s4.8,3,6.6,5.1c1.8,2.1,3.1,4.4,4,6.9c0.9,2.5,1.4,4.9,1.4,7.1h-43.5
					C640.7,504.7,641.7,501.6,643.2,498.9z"/>
				<polygon class="st0" points="741.4,484 719.1,511.8 696.8,484 694.2,486 717,514.4 694.2,542.8 696.8,544.8 719.1,517.2 
					741.4,544.8 744,542.8 721.2,514.4 744,486 				"/>
				<path class="st0" d="M884,492.1c-1.6-1.9-3.4-3.4-5.4-4.6s-4.2-2.1-6.5-2.7s-4.7-0.9-7.1-0.9c-3.3,0-6.5,0.5-9.7,1.5
					c-3.2,1-6.1,2.4-8.6,4.3v-43.9h-3.3v98h3.3v-50c2.4-2.1,5.2-3.8,8.4-4.9c3.2-1.2,6.5-1.8,9.8-1.8c4.2,0,8.2,1,11.9,3.1
					c3.7,2,6.3,5.2,7.9,9.5c0.8,2.1,1.2,4.4,1.2,6.7v37.3h3.3v-37.5c0-2.7-0.5-5.3-1.4-7.7C886.8,496.1,885.5,493.9,884,492.1z"/>
				<path class="st0" d="M953.4,492.8c-2.8-2.7-6-4.9-9.7-6.5c-3.7-1.6-7.7-2.4-11.9-2.4s-8.1,0.8-11.9,2.4c-3.7,1.6-7,3.8-9.7,6.5
					c-2.8,2.8-4.9,6-6.5,9.7c-1.6,3.7-2.4,7.7-2.4,11.9s0.8,8.1,2.4,11.9c1.6,3.7,3.8,7,6.5,9.7c2.7,2.8,6,4.9,9.7,6.5
					c3.7,1.6,7.7,2.4,11.9,2.4s8.1-0.8,11.9-2.4s7-3.8,9.7-6.5c2.7-2.7,4.9-6,6.5-9.7c1.6-3.7,2.4-7.7,2.4-11.9
					c0-4.2-0.8-8.1-2.4-11.9C958.3,498.8,956.1,495.6,953.4,492.8z M956.9,525c-1.4,3.3-3.4,6.2-5.8,8.7s-5.3,4.4-8.7,5.8
					c-3.3,1.4-6.9,2.1-10.6,2.1c-3.7,0-7.3-0.7-10.6-2.1s-6.2-3.4-8.7-5.8s-4.4-5.3-5.8-8.7c-1.4-3.3-2.1-6.9-2.1-10.6
					c0-3.7,0.7-7.3,2.1-10.6c1.4-3.3,3.4-6.2,5.8-8.7s5.3-4.4,8.7-5.8c3.3-1.4,6.9-2.1,10.6-2.1c3.7,0,7.3,0.7,10.6,2.1
					c3.3,1.4,6.2,3.4,8.7,5.8s4.4,5.3,5.8,8.7c1.4,3.3,2.1,6.9,2.1,10.6C959,518.1,958.3,521.7,956.9,525z"/>
				<path class="st0" d="M1018.4,503.1c-1.5-3.6-3.9-6.8-7-9.6c-3.1-2.8-7-5-11.6-6.8s-10.1-2.6-16.3-2.6c-1.2,0-2.6,0-4.1,0
					c-1.5,0-2.9,0.1-4.4,0.3V576h3.3v-32c1,0.1,1.8,0.1,2.6,0.2c0.8,0,1.6,0,2.4,0c6.2,0,11.7-0.9,16.4-2.6c4.7-1.7,8.6-4,11.7-6.8
					s5.4-6,7-9.6c1.5-3.6,2.3-7.3,2.3-11.1C1020.7,510.5,1020,506.8,1018.4,503.1z M1015.3,524c-1.4,3.2-3.5,6-6.4,8.6
					c-2.8,2.5-6.3,4.6-10.6,6.1c-4.2,1.5-9.2,2.3-14.9,2.3c-0.8,0-1.6,0-2.5,0c-0.8,0-1.7-0.1-2.6-0.2v-53.1c1-0.1,1.8-0.1,2.7-0.1
					s1.7,0,2.5,0c5.6,0,10.6,0.8,14.8,2.3s7.8,3.5,10.6,6c2.8,2.5,4.9,5.3,6.4,8.5c1.4,3.2,2.1,6.5,2.1,9.8
					C1017.4,517.5,1016.7,520.8,1015.3,524z"/>
			</g>
		</g>
	</g>
</g>
</svg>
