<?xml version="1.0" encoding="utf-8"?>
<!-- Generator: Adobe Illustrator 25.0.0, SVG Export Plug-In . SVG Version: 6.00 Build 0)  -->
<svg version="1.1" id="Capa_1" xmlns="http://www.w3.org/2000/svg" xmlns:xlink="http://www.w3.org/1999/xlink" x="0px" y="0px"
	 viewBox="0 0 502 312" style="enable-background:new 0 0 502 312;" xml:space="preserve">
<style type="text/css">
	.st0{fill:#F291BF;}
	.st1{fill:#FFFFFF;}
</style>
<rect class="st0" width="502" height="312"/>
<g>
	<g>
		<g>
			<path class="st1" d="M151.34,305.26c-1.04-0.45-1.85-1.1-2.45-1.93c-0.59-0.83-0.89-1.81-0.89-2.92h3.39
				c0.07,0.83,0.4,1.52,0.99,2.06c0.58,0.54,1.4,0.81,2.46,0.81c1.09,0,1.94-0.26,2.56-0.79c0.61-0.53,0.92-1.21,0.92-2.04
				c0-0.65-0.19-1.18-0.57-1.58c-0.38-0.41-0.85-0.72-1.42-0.95s-1.35-0.46-2.35-0.72c-1.26-0.33-2.28-0.67-3.07-1.01
				s-1.46-0.88-2.02-1.6c-0.56-0.72-0.83-1.69-0.83-2.89c0-1.11,0.28-2.09,0.83-2.92c0.56-0.83,1.33-1.47,2.33-1.92
				c1-0.44,2.16-0.67,3.48-0.67c1.87,0,3.4,0.47,4.6,1.4c1.2,0.94,1.86,2.22,1.99,3.85h-3.5c-0.06-0.7-0.39-1.31-1-1.81
				c-0.61-0.5-1.42-0.75-2.42-0.75c-0.91,0-1.65,0.23-2.22,0.69c-0.58,0.46-0.86,1.13-0.86,2c0,0.59,0.18,1.08,0.54,1.46
				c0.36,0.38,0.82,0.68,1.38,0.9c0.56,0.22,1.32,0.46,2.28,0.72c1.28,0.35,2.32,0.7,3.13,1.06c0.81,0.35,1.49,0.89,2.06,1.63
				c0.57,0.73,0.85,1.71,0.85,2.93c0,0.98-0.26,1.91-0.79,2.78c-0.53,0.87-1.3,1.57-2.31,2.1c-1.01,0.53-2.2,0.79-3.57,0.79
				C153.55,305.94,152.38,305.71,151.34,305.26z"/>
			<path class="st1" d="M169.37,304.67c-1.51-0.84-2.71-2.02-3.59-3.53c-0.88-1.51-1.32-3.21-1.32-5.1c0-1.89,0.44-3.59,1.32-5.09
				c0.88-1.5,2.08-2.67,3.59-3.52c1.51-0.84,3.17-1.26,4.96-1.26c1.81,0,3.48,0.42,4.99,1.26c1.51,0.84,2.7,2.02,3.57,3.52
				c0.87,1.5,1.31,3.2,1.31,5.09c0,1.89-0.44,3.59-1.31,5.1c-0.87,1.51-2.06,2.69-3.57,3.53c-1.51,0.84-3.17,1.26-4.99,1.26
				C172.54,305.94,170.88,305.52,169.37,304.67z M177.75,302.31c1-0.58,1.78-1.42,2.35-2.5c0.57-1.08,0.85-2.34,0.85-3.77
				c0-1.43-0.28-2.68-0.85-3.75c-0.57-1.08-1.35-1.9-2.35-2.47c-1-0.57-2.14-0.86-3.42-0.86c-1.28,0-2.42,0.29-3.42,0.86
				c-1,0.58-1.79,1.4-2.35,2.47c-0.57,1.08-0.85,2.33-0.85,3.75c0,1.43,0.28,2.68,0.85,3.77c0.56,1.08,1.35,1.92,2.35,2.5
				c1,0.58,2.14,0.88,3.42,0.88C175.61,303.19,176.75,302.89,177.75,302.31z"/>
			<path class="st1" d="M198.93,286.42v2.59h-8.2v5.7h6.39v2.59h-6.39v8.45h-3.17v-19.32H198.93z"/>
			<path class="st1" d="M214.61,286.42v2.59h-5.14v16.74h-3.17v-16.74h-5.17v-2.59H214.61z"/>
			<path class="st1" d="M243.22,286.42l-5.73,19.32h-3.59l-4.06-14.62l-4.31,14.62l-3.56,0.03l-5.48-19.35h3.36l4,15.73l4.34-15.73
				h3.56l4.03,15.65l4.03-15.65H243.22z"/>
			<path class="st1" d="M257.73,301.79h-8.09l-1.39,3.95h-3.31l6.92-19.35h3.67l6.92,19.35h-3.34L257.73,301.79z M256.84,299.21
				l-3.14-8.98l-3.17,8.98H256.84z"/>
			<path class="st1" d="M275.74,305.74l-4.45-7.73h-2.42v7.73h-3.17v-19.32h6.67c1.48,0,2.74,0.26,3.77,0.78
				c1.03,0.52,1.8,1.21,2.31,2.09c0.51,0.87,0.77,1.84,0.77,2.92c0,1.26-0.37,2.41-1.1,3.43c-0.73,1.03-1.86,1.73-3.38,2.1
				l4.78,8.01H275.74z M268.87,295.49h3.5c1.18,0,2.08-0.3,2.68-0.89c0.6-0.59,0.9-1.39,0.9-2.39c0-1-0.3-1.78-0.89-2.35
				c-0.59-0.56-1.49-0.85-2.7-0.85h-3.5V295.49z"/>
			<path class="st1" d="M286.69,288.98v5.67h6.67v2.59h-6.67v5.92h7.51v2.59h-10.67v-19.35h10.67v2.59H286.69z"/>
			<path class="st1" d="M308.99,288.98v5.67h6.67v2.59h-6.67v5.92h7.51v2.59h-10.67v-19.35h10.67v2.59H308.99z"/>
			<path class="st1" d="M332.01,286.42v2.59h-8.2v5.7h6.39v2.59h-6.39v8.45h-3.17v-19.32H332.01z"/>
			<path class="st1" d="M338.37,286.42v19.32h-3.17v-19.32H338.37z"/>
			<path class="st1" d="M343.05,290.95c0.88-1.5,2.08-2.67,3.59-3.52c1.51-0.84,3.17-1.26,4.96-1.26c2.06,0,3.89,0.5,5.49,1.51
				c1.6,1.01,2.77,2.44,3.49,4.29h-3.81c-0.5-1.02-1.2-1.78-2.09-2.28c-0.89-0.5-1.92-0.75-3.09-0.75c-1.28,0-2.42,0.29-3.42,0.86
				c-1,0.58-1.79,1.4-2.35,2.47c-0.57,1.08-0.85,2.33-0.85,3.75c0,1.43,0.28,2.68,0.85,3.75c0.56,1.08,1.35,1.9,2.35,2.49
				c1,0.58,2.14,0.88,3.42,0.88c1.17,0,2.2-0.25,3.09-0.75c0.89-0.5,1.58-1.26,2.09-2.28h3.81c-0.72,1.85-1.89,3.28-3.49,4.28
				c-1.6,1-3.43,1.5-5.49,1.5c-1.82,0-3.48-0.42-4.98-1.26c-1.5-0.84-2.69-2.02-3.57-3.52c-0.88-1.5-1.32-3.2-1.32-5.09
				C341.73,294.15,342.17,292.46,343.05,290.95z"/>
			<path class="st1" d="M376.17,301.79h-8.09l-1.39,3.95h-3.31l6.92-19.35h3.67l6.92,19.35h-3.34L376.17,301.79z M375.29,299.21
				l-3.14-8.98l-3.17,8.98H375.29z"/>
			<path class="st1" d="M387.21,302.99h8.98v2.75h-12.73v-2.47l8.95-14.09h-8.95v-2.75h12.73v2.47L387.21,302.99z"/>
		</g>
		<path class="st1" d="M403.26,305.6c-0.52,0-0.92-0.19-0.95-0.2l0.29-0.59c0.01,0,0.59,0.28,1.14,0.05
			c0.38-0.16,0.67-0.52,0.87-1.09c0.21-0.6,0.16-1.57,0.09-2.91c-0.05-0.85-0.1-1.92-0.1-3.15v-0.14l1.71-1.71l-1.71-1.71v-5.68
			c0-0.09-0.04-2.13-2.13-2.13v-0.66c2.21,0,2.8,1.83,2.8,2.8v5.41l1.99,1.99l-1.99,1.99c0,1.15,0.06,2.12,0.1,2.97
			c0.08,1.41,0.13,2.43-0.12,3.16c-0.26,0.75-0.68,1.25-1.25,1.48C403.73,305.56,403.48,305.6,403.26,305.6z"/>
	</g>
	<g>
		<rect x="23.64" y="131.39" class="st1" width="449.92" height="1.85"/>
		<rect x="140.13" y="171" class="st1" width="281.9" height="1.85"/>
		<rect x="269.67" y="109.02" class="st1" width="1.85" height="23.3"/>
		<rect x="84.21" y="108.09" class="st1" width="186.38" height="1.85"/>
		<path class="st1" d="M76.06,116.93c-5.01,0-9.08-4.07-9.08-9.08c0-5.01,4.07-9.08,9.08-9.08s9.08,4.07,9.08,9.08
			C85.14,112.86,81.07,116.93,76.06,116.93z M76.06,100.62c-3.99,0-7.23,3.24-7.23,7.23s3.24,7.23,7.23,7.23s7.23-3.24,7.23-7.23
			S80.05,100.62,76.06,100.62z"/>
		<path class="st1" d="M15.49,140.23c-5.01,0-9.08-4.07-9.08-9.08c0-5.01,4.07-9.08,9.08-9.08s9.08,4.07,9.08,9.08
			C24.57,136.16,20.49,140.23,15.49,140.23z M15.49,123.92c-3.99,0-7.23,3.24-7.23,7.23c0,3.99,3.24,7.23,7.23,7.23
			s7.23-3.24,7.23-7.23C22.72,127.16,19.47,123.92,15.49,123.92z"/>
		<path class="st1" d="M131.97,179.83c-5.01,0-9.08-4.07-9.08-9.08s4.07-9.08,9.08-9.08c5.01,0,9.08,4.07,9.08,9.08
			S136.98,179.83,131.97,179.83z M131.97,163.52c-3.99,0-7.23,3.24-7.23,7.23c0,3.99,3.24,7.23,7.23,7.23
			c3.99,0,7.23-3.24,7.23-7.23C139.21,166.77,135.96,163.52,131.97,163.52z"/>
	</g>
	<path class="st1" d="M384.77,210.13c0.02-0.17,0.04-0.33,0.04-0.5c-0.11-17.46-11.15-32.98-27.63-38.8c0,0-30.4-10.25-41.99-14.81
		c-7.43-2.92-13.65-8.12-13.91-15.98c1.43-1.44,2.72-3.01,3.82-4.72l7.71-11.99c4.33-6.74,6.91-14.23,7.63-21.95
		c2-0.5,3.09-1.71,4.26-3.56c0.09-0.18,0.19-0.36,0.28-0.54l4.79-11.25c1.25-3.66-0.5-7.6-4.24-9.51l-0.48-0.24
		c-0.6-0.31-1.23-0.47-1.86-0.52c0.28-5.8,0.71-14.67,1.06-22.16c0.59-12.29-1.8-14.96-1.8-14.96c1.24-1.24,4.9-0.51,4.9-0.51
		c-5.85-17.77-29.62-20.11-29.62-20.11c4.24-2.34,8.92-1.32,8.92-1.32c-21.8-9.65-40.96-1.46-40.96-1.46
		c-0.73-4.24,2.93-7.31,2.93-7.31c-19.75-1.76-22.23,17.11-22.23,17.11c-9.65-0.88-12.74,9.72-12.74,9.72
		c2.91-3.5,4.68-2.4,4.68-2.4c-8.89,8.89-4.44,39.04-3.75,43.38v0.5c-1.29-0.62-2.92-0.7-4.38,0.04l-0.48,0.24
		c-3.74,1.91-5.5,5.85-4.24,9.51l4.79,11.25c0.08,0.18,0.17,0.37,0.28,0.54c1.18,1.87,2.27,3.08,4.29,3.58
		c0.78,7.78,3.44,15.34,7.89,22.1l7.93,12.06c1.48,2.26,3.29,4.28,5.35,6.05c-1.02,6.96-6.79,11.74-13.81,14.29
		c-10.89,3.97-43.83,15.08-43.83,15.08c-16.72,5.75-27.94,21.48-27.94,39.15v5.3l213.56,0.13L384.77,210.13z"/>
	<path class="st0" d="M194.45,255.63l-8.18-74.26c-0.42-4.51,3.2-8.4,7.82-8.4h146.27c4.68,0,8.32,3.99,7.8,8.55l-10.8,74.11"/>
	<g>
		<path class="st1" d="M315.53,267.56c-3.83-2.83-5.89-6.89-6.18-12.17h15.19c0.14,1.79,0.68,3.1,1.6,3.93
			c0.92,0.82,2.11,1.23,3.56,1.23c1.31,0,2.38-0.33,3.23-0.98c0.85-0.65,1.27-1.56,1.27-2.72c0-1.5-0.7-2.66-2.11-3.49
			c-1.4-0.82-3.68-1.74-6.83-2.76c-3.34-1.11-6.05-2.19-8.1-3.23c-2.06-1.04-3.85-2.57-5.38-4.58c-1.53-2.01-2.29-4.64-2.29-7.88
			c0-3.29,0.82-6.12,2.47-8.47c1.65-2.35,3.92-4.13,6.83-5.34s6.2-1.82,9.88-1.82c5.96,0,10.72,1.39,14.28,4.18
			c3.56,2.79,5.46,6.7,5.7,11.74h-15.48c-0.05-1.55-0.52-2.71-1.42-3.49c-0.9-0.77-2.05-1.16-3.45-1.16c-1.07,0-1.94,0.31-2.62,0.94
			c-0.68,0.63-1.02,1.53-1.02,2.69c0,0.97,0.37,1.81,1.13,2.51s1.68,1.31,2.8,1.82c1.11,0.51,2.76,1.15,4.94,1.93
			c3.25,1.12,5.92,2.22,8.03,3.31c2.11,1.09,3.92,2.62,5.45,4.58c1.53,1.96,2.29,4.45,2.29,7.45c0,3.05-0.76,5.79-2.29,8.21
			c-1.53,2.42-3.73,4.34-6.61,5.74c-2.88,1.41-6.29,2.11-10.21,2.11C324.25,271.82,319.36,270.4,315.53,267.56z"/>
		<path class="st1" d="M449.18,220.07v11.34h-20.49v9.01h15.12v10.83h-15.12v20.06h-14.25v-51.24H449.18z"/>
		<path class="st0" d="M380.64,285.2l-1.3-0.03c-0.8-0.02-1.63-0.07-2.54-0.14l-1.28-0.11l-0.38-1.23
			c-0.26-0.86-0.51-1.87-0.73-2.75c-0.2-0.82-0.41-1.66-0.62-2.38c-0.28-0.05-0.57-0.11-0.86-0.17c-0.49,0.6-1.01,1.32-1.53,2.02
			c-0.57,0.78-1.14,1.55-1.69,2.22l-0.82,1l-1.23-0.4c-0.78-0.25-1.58-0.53-2.39-0.85l-1.2-0.47l-0.01-1.29
			c-0.01-0.9,0.04-1.92,0.08-2.82c0.04-0.85,0.08-1.73,0.08-2.49c-0.26-0.13-0.52-0.27-0.78-0.41c-0.63,0.43-1.33,0.97-2.02,1.49
			c-0.78,0.59-1.54,1.18-2.26,1.66l-1.07,0.73l-1.07-0.73c-0.7-0.48-1.39-0.98-2.06-1.49l-1.02-0.79l0.35-1.24
			c0.24-0.85,0.57-1.81,0.87-2.67c0.27-0.78,0.56-1.63,0.78-2.38c-0.21-0.2-0.42-0.4-0.63-0.61c-0.72,0.24-1.54,0.55-2.35,0.86
			c-0.9,0.35-1.82,0.7-2.64,0.96l-1.23,0.4l-0.82-0.99c-0.55-0.66-1.08-1.34-1.56-2l-0.76-1.04l0.69-1.1c0.45-0.72,1-1.49,1.53-2.24
			l0.04-0.06c0.48-0.68,1.01-1.42,1.43-2.08c-0.15-0.25-0.29-0.51-0.44-0.76c-0.75,0.03-1.62,0.1-2.46,0.16
			c-0.96,0.08-1.95,0.16-2.84,0.18l-1.29,0.03l-0.51-1.19c-0.36-0.84-0.67-1.61-0.93-2.36l-0.44-1.22l0.97-0.86
			c0.64-0.56,1.4-1.16,2.12-1.73c0.7-0.55,1.41-1.11,2-1.62c-0.07-0.29-0.14-0.58-0.2-0.85c-0.72-0.19-1.57-0.36-2.39-0.53
			c-0.95-0.2-1.93-0.4-2.79-0.63l-1.24-0.33l-0.16-1.27c-0.06-0.43-0.11-0.86-0.15-1.3c-0.04-0.43-0.06-0.87-0.09-1.3l-0.07-1.28
			l1.16-0.55c0.81-0.38,1.74-0.76,2.64-1.12c0.74-0.3,1.56-0.63,2.25-0.94c0.01-0.29,0.03-0.58,0.05-0.88
			c-0.66-0.39-1.45-0.82-2.22-1.23c-0.79-0.42-1.68-0.9-2.43-1.35l-1.11-0.67l0.22-1.28c0.13-0.78,0.3-1.6,0.5-2.49l0.29-1.26
			l1.27-0.2c0.87-0.13,1.85-0.23,2.8-0.32c0.86-0.08,1.74-0.17,2.48-0.28c0.09-0.28,0.19-0.55,0.29-0.83
			c-0.52-0.56-1.15-1.18-1.77-1.79c-0.68-0.67-1.38-1.35-1.96-2l-0.87-0.96l0.57-1.16c0.36-0.75,0.76-1.5,1.18-2.25l0.64-1.13
			l1.28,0.17c0.88,0.12,1.88,0.31,2.77,0.48c0.84,0.16,1.71,0.33,2.46,0.43c0.17-0.24,0.34-0.48,0.51-0.71
			c-0.33-0.67-0.76-1.43-1.17-2.17l1.63-0.99l-1.67,0.93c-0.46-0.82-0.93-1.67-1.31-2.45l-0.57-1.16l0.87-0.96
			c0.59-0.64,1.18-1.26,1.76-1.83l0.93-0.9l1.18,0.52c0.8,0.35,1.67,0.8,2.51,1.23l0.06,0.03c0.75,0.38,1.52,0.77,2.19,1.08
			c0.23-0.18,0.46-0.36,0.69-0.54c-0.14-0.76-0.34-1.64-0.52-2.44c-0.21-0.93-0.43-1.89-0.58-2.76l-0.22-1.27l1.1-0.67
			c0.76-0.46,1.48-0.88,2.2-1.26l1.14-0.61l0.99,0.84c0.66,0.57,1.37,1.23,2.05,1.88c0.63,0.6,1.28,1.21,1.86,1.72
			c0.28-0.11,0.55-0.22,0.82-0.32c0.08-0.75,0.14-1.61,0.19-2.46c0.06-0.98,0.12-1.96,0.23-2.83l0.15-1.28l1.25-0.33
			c0.87-0.23,1.68-0.43,2.47-0.59l1.27-0.26l0.71,1.09c0.48,0.74,1,1.64,1.42,2.36c0.42,0.73,0.88,1.53,1.32,2.19
			c0.3-0.03,0.6-0.06,0.91-0.08c0.31-0.74,0.62-1.6,0.91-2.4c0.32-0.89,0.65-1.79,0.98-2.57l0.5-1.2l1.3,0.03
			c0.8,0.02,1.63,0.07,2.54,0.14l1.29,0.11l0.38,1.23c0.25,0.84,0.49,1.79,0.72,2.71c0.2,0.81,0.41,1.68,0.63,2.42
			c0.28,0.05,0.57,0.11,0.86,0.17c0.48-0.59,1-1.3,1.52-2c0.54-0.74,1.14-1.55,1.7-2.23l0.82-1l1.23,0.39
			c0.79,0.25,1.57,0.53,2.39,0.85l1.2,0.47l0.01,1.29c0.01,0.89-0.04,1.92-0.08,2.83c-0.04,0.87-0.08,1.74-0.08,2.48
			c0.26,0.13,0.52,0.27,0.78,0.41c0.62-0.43,1.33-0.96,2.01-1.49c0.72-0.55,1.53-1.16,2.26-1.67l1.07-0.73l1.07,0.72
			c0.69,0.47,1.39,0.97,2.06,1.49l1.02,0.79l-0.35,1.24c-0.24,0.83-0.55,1.75-0.86,2.64c-0.29,0.83-0.57,1.67-0.79,2.41
			c0.21,0.2,0.43,0.4,0.63,0.61c0.71-0.23,1.52-0.54,2.31-0.85c0.92-0.36,1.84-0.71,2.68-0.98l1.23-0.4l0.82,0.99
			c0.55,0.67,1.08,1.34,1.56,2l0.76,1.05l-0.69,1.1c-0.47,0.75-1.05,1.57-1.57,2.3c-0.48,0.68-1.01,1.42-1.43,2.08
			c0.15,0.25,0.3,0.51,0.44,0.76c0.75-0.03,1.62-0.09,2.46-0.16c0.91-0.07,1.94-0.16,2.84-0.18l1.29-0.03l0.51,1.19
			c0.36,0.84,0.67,1.61,0.93,2.36l0.44,1.22l-0.97,0.86c-0.65,0.57-1.41,1.17-2.15,1.75c-0.69,0.54-1.39,1.1-1.97,1.6
			c0.07,0.29,0.14,0.57,0.2,0.85c0.74,0.19,1.6,0.37,2.38,0.53c0.95,0.2,1.93,0.4,2.8,0.63l1.24,0.33l0.16,1.27
			c0.05,0.43,0.11,0.86,0.15,1.3c0.04,0.43,0.06,0.85,0.09,1.3l0.07,1.28l-1.16,0.55c-0.79,0.37-1.7,0.74-2.58,1.09l-0.05,0.02
			c-0.78,0.31-1.58,0.64-2.26,0.95c-0.01,0.29-0.03,0.58-0.05,0.88c0.66,0.4,1.45,0.81,2.22,1.22c0.79,0.42,1.69,0.9,2.43,1.35
			l1.11,0.67l-0.22,1.28c-0.14,0.8-0.3,1.61-0.5,2.49l-0.29,1.26l-1.27,0.2c-0.9,0.14-1.92,0.24-2.82,0.32
			c-0.85,0.08-1.71,0.17-2.46,0.28c-0.09,0.28-0.19,0.55-0.29,0.83c0.52,0.56,1.15,1.18,1.76,1.79c0.64,0.63,1.36,1.34,1.96,2
			l0.87,0.96l-0.57,1.16c-0.36,0.75-0.76,1.5-1.18,2.24l-0.63,1.13l-1.28-0.17c-0.86-0.12-1.83-0.3-2.76-0.48
			c-0.82-0.16-1.71-0.33-2.48-0.44c-0.17,0.24-0.34,0.48-0.51,0.71c0.34,0.68,0.76,1.44,1.18,2.19c0.48,0.86,0.95,1.71,1.34,2.49
			l0.57,1.16l-0.87,0.96c-0.58,0.64-1.17,1.25-1.76,1.83l-0.93,0.9l-1.18-0.53c-0.81-0.36-1.71-0.82-2.51-1.23
			c-0.78-0.4-1.56-0.8-2.25-1.11c-0.23,0.18-0.46,0.36-0.69,0.54c0.13,0.74,0.33,1.6,0.52,2.43c0.2,0.89,0.43,1.89,0.58,2.76
			l0.22,1.27l-1.1,0.67c-0.76,0.47-1.48,0.88-2.2,1.26l-1.15,0.61l-0.99-0.84c-0.66-0.56-1.36-1.23-2.04-1.88
			c-0.63-0.6-1.28-1.22-1.87-1.72c-0.28,0.11-0.55,0.22-0.82,0.32c-0.08,0.75-0.14,1.61-0.19,2.46c-0.06,0.96-0.12,1.96-0.23,2.84
			l-0.15,1.28l-1.25,0.33c-0.89,0.24-1.69,0.43-2.47,0.59l-1.27,0.26l-0.71-1.09c-0.46-0.7-0.93-1.52-1.39-2.3l-0.03-0.05
			c-0.42-0.73-0.89-1.53-1.32-2.2c-0.3,0.03-0.61,0.06-0.91,0.08c-0.3,0.71-0.6,1.55-0.9,2.36c-0.33,0.9-0.65,1.81-0.99,2.6
			L380.64,285.2z M371.62,274.15l1.27,0.31c0.86,0.21,1.66,0.37,2.46,0.49l1.3,0.21l0.45,1.23c0.39,1.04,0.71,2.36,1.02,3.63
			c0.06,0.24,0.12,0.49,0.18,0.75c0.08-0.21,0.15-0.42,0.23-0.64c0.47-1.29,0.94-2.6,1.45-3.61l0.59-1.17l1.31-0.06
			c0.83-0.04,1.68-0.12,2.52-0.23l1.29-0.17l0.79,1.05c0.7,0.93,1.43,2.19,2.07,3.3l0.03,0.04c0.1,0.18,0.21,0.36,0.31,0.53
			c0.02-0.26,0.03-0.51,0.05-0.77c0.08-1.31,0.17-2.67,0.36-3.76l0.23-1.29l1.24-0.43c0.76-0.26,1.52-0.57,2.33-0.92l1.2-0.53
			l1.05,0.78c0.91,0.68,1.92,1.64,2.89,2.56c0.17,0.16,0.33,0.32,0.5,0.48c-0.05-0.24-0.11-0.48-0.16-0.72
			c-0.29-1.29-0.6-2.62-0.72-3.74l-0.14-1.31l1.07-0.76c0.67-0.48,1.33-1,1.98-1.54l1-0.84l1.23,0.46c1.05,0.39,2.27,1.02,3.45,1.62
			c0.22,0.11,0.45,0.23,0.67,0.34c-0.12-0.21-0.23-0.42-0.35-0.63c-0.66-1.19-1.33-2.38-1.76-3.42l-0.5-1.21l0.81-1.03
			c0.52-0.67,1.01-1.35,1.47-2.04l0.73-1.1l1.31,0.1c1.13,0.08,2.47,0.34,3.77,0.59c0.24,0.05,0.48,0.09,0.72,0.14
			c-0.17-0.17-0.34-0.34-0.51-0.5c-0.96-0.94-1.94-1.91-2.65-2.79l-0.82-1.02l0.49-1.22c0.32-0.79,0.6-1.58,0.84-2.36l0.39-1.26
			l1.29-0.27c1.09-0.23,2.45-0.37,3.76-0.49c0.24-0.02,0.49-0.05,0.74-0.07c-0.2-0.11-0.41-0.22-0.6-0.32
			c-1.19-0.64-2.42-1.29-3.35-1.94l-1.07-0.74l0.12-1.3c0.08-0.91,0.13-1.73,0.14-2.51l0.01-1.31l1.16-0.63
			c0.97-0.53,2.23-1.03,3.44-1.52l0.05-0.02c0.25-0.1,0.5-0.2,0.75-0.3c-0.28-0.06-0.57-0.12-0.85-0.18
			c-1.27-0.26-2.59-0.54-3.65-0.89l-1.25-0.41l-0.25-1.29c-0.15-0.75-0.34-1.55-0.58-2.44l-0.35-1.26l0.93-0.93
			c0.81-0.81,1.9-1.67,2.96-2.5c0.18-0.14,0.36-0.28,0.53-0.42c-0.25,0.02-0.5,0.04-0.74,0.06c-1.32,0.11-2.68,0.22-3.79,0.18
			l-1.31-0.04l-0.6-1.17c-0.37-0.71-0.79-1.45-1.24-2.17l-0.69-1.12l0.63-1.15c0.54-1,1.34-2.13,2.12-3.22
			c0.13-0.19,0.27-0.38,0.41-0.58c-0.23,0.09-0.46,0.17-0.68,0.26c-1.27,0.49-2.54,0.97-3.61,1.25l-1.27,0.32l-0.9-0.94
			c-0.57-0.6-1.18-1.19-1.81-1.75l-0.98-0.87l0.28-1.28c0.24-1.11,0.69-2.41,1.12-3.67c0.08-0.23,0.16-0.46,0.24-0.69
			c-0.2,0.15-0.39,0.3-0.58,0.44c-1.07,0.82-2.16,1.65-3.13,2.22l-1.14,0.67l-1.13-0.66c-0.72-0.42-1.47-0.81-2.22-1.16l-1.19-0.56
			l-0.08-1.32c-0.08-1.1-0.01-2.45,0.05-3.76c0.01-0.26,0.02-0.53,0.04-0.78c-0.14,0.19-0.28,0.38-0.41,0.56
			c-0.8,1.09-1.62,2.2-2.39,3.03l-0.9,0.96l-1.27-0.31c-0.87-0.21-1.67-0.37-2.45-0.49l-1.3-0.2l-0.46-1.23
			c-0.39-1.05-0.71-2.37-1.02-3.65c-0.06-0.25-0.12-0.5-0.18-0.74c-0.07,0.2-0.15,0.41-0.22,0.61c-0.47,1.29-0.94,2.6-1.46,3.63
			l-0.58,1.17l-1.31,0.06c-0.84,0.04-1.69,0.12-2.52,0.22l-1.3,0.17l-0.79-1.05c-0.69-0.92-1.39-2.13-2.07-3.3
			c-0.11-0.19-0.22-0.39-0.34-0.58c-0.02,0.25-0.03,0.49-0.05,0.74c-0.08,1.34-0.17,2.7-0.36,3.79l-0.23,1.3l-1.25,0.43
			c-0.75,0.26-1.52,0.56-2.33,0.92l-1.2,0.53l-1.05-0.79c-0.91-0.68-1.91-1.63-2.89-2.56c-0.17-0.16-0.34-0.32-0.51-0.48
			c0.05,0.24,0.11,0.48,0.16,0.72c0.28,1.23,0.6,2.62,0.72,3.74l0.14,1.3l-1.06,0.76c-0.68,0.49-1.35,1.01-1.98,1.54l-1,0.84
			l-1.23-0.46c-1.04-0.39-2.25-1-3.41-1.6l-0.06-0.03c-0.22-0.11-0.43-0.22-0.65-0.33c0.11,0.21,0.23,0.41,0.34,0.62l0.03,0.06
			c0.64,1.15,1.3,2.34,1.73,3.37l0.5,1.22l-0.82,1.03c-0.52,0.66-1.01,1.35-1.46,2.03l-0.72,1.09l-1.31-0.1
			c-1.12-0.08-2.47-0.34-3.78-0.59c-0.24-0.05-0.48-0.09-0.72-0.14c0.17,0.16,0.33,0.33,0.5,0.49c0.96,0.95,1.95,1.92,2.66,2.8
			l0.83,1.02l-0.5,1.22c-0.31,0.78-0.59,1.58-0.83,2.35l-0.39,1.26l-1.29,0.27c-1.09,0.23-2.44,0.37-3.75,0.49
			c-0.25,0.02-0.5,0.05-0.75,0.07c0.2,0.11,0.4,0.22,0.6,0.32c1.2,0.64,2.42,1.29,3.36,1.94l1.07,0.75l-0.11,1.29
			c-0.09,0.92-0.13,1.74-0.14,2.51l-0.02,1.32l-1.15,0.62c-0.98,0.53-2.23,1.03-3.43,1.52c-0.27,0.11-0.54,0.22-0.81,0.33
			c0.28,0.06,0.57,0.12,0.85,0.18c1.28,0.27,2.6,0.54,3.65,0.89l1.25,0.41l0.25,1.29c0.15,0.76,0.34,1.56,0.58,2.44l0.35,1.26
			l-0.93,0.93c-0.81,0.81-1.91,1.68-2.97,2.51c-0.18,0.14-0.35,0.28-0.53,0.42c0.25-0.02,0.5-0.04,0.75-0.06
			c1.32-0.11,2.67-0.21,3.79-0.18l1.31,0.04l0.61,1.16c0.38,0.73,0.8,1.46,1.24,2.18l0.7,1.11l-0.63,1.15
			c-0.55,1-1.34,2.13-2.11,3.21l-0.04,0.06c-0.12,0.17-0.24,0.35-0.37,0.52c0.22-0.08,0.44-0.17,0.66-0.25
			c1.26-0.49,2.55-0.98,3.63-1.26l1.26-0.33l0.91,0.94c0.58,0.61,1.19,1.19,1.81,1.75l0.98,0.87l-0.28,1.28
			c-0.24,1.1-0.69,2.4-1.12,3.66c-0.08,0.23-0.16,0.46-0.24,0.69c0.18-0.14,0.37-0.28,0.55-0.42c1.09-0.83,2.18-1.66,3.16-2.24
			l1.13-0.67l1.14,0.66c0.72,0.42,1.47,0.81,2.21,1.16l1.18,0.56l0.09,1.31c0.08,1.12,0.01,2.49-0.05,3.81
			c-0.01,0.24-0.02,0.49-0.03,0.74c0.13-0.18,0.26-0.35,0.39-0.53c0.82-1.11,1.64-2.23,2.42-3.06L371.62,274.15z M377.63,274.57
			l2.31-3.66c1.68-2.66,2.8-7.05,3.3-11.28c-2.14,6.11-6.24,11.06-9.94,13.26l-0.85,0.5l-0.94-0.28c-4.33-1.29-8.41-3.58-11.79-6.62
			l-3.23-2.9l4.23-0.95c3.07-0.69,6.97-3.01,10.32-5.65c-3.09,1.49-6.51,2.46-9.88,2.76c-2.39,0.21-4.65,0.07-6.54-0.41l-0.95-0.24
			l-0.47-0.86c-2-3.7-3.2-7.71-3.58-11.91v0c-0.03-0.33-0.05-0.65-0.06-0.98l-0.25-4.47l3.68,2.32c2.66,1.68,7.05,2.8,11.28,3.3
			c-6.11-2.14-11.06-6.24-13.26-9.94l-0.5-0.84l0.28-0.94c1.3-4.34,3.59-8.42,6.62-11.79l2.9-3.23l0.95,4.24
			c0.69,3.07,3.01,6.97,5.64,10.31c-2.81-5.83-3.4-12.24-2.35-16.41l0.24-0.95l0.87-0.47c3.7-2,7.7-3.2,11.91-3.58
			c0.34-0.03,0.68-0.05,1.03-0.07l4.42-0.23l-2.32,3.67c-1.68,2.66-2.8,7.05-3.3,11.28c2.14-6.11,6.24-11.06,9.94-13.26l0.84-0.5
			l0.95,0.28c4.34,1.3,8.41,3.59,11.79,6.62l3.22,2.9l-4.23,0.95c-3.07,0.69-6.97,3.01-10.32,5.65c3.09-1.49,6.5-2.46,9.88-2.76
			l0.17,1.9l-0.17-1.9c2.39-0.21,4.65-0.07,6.54,0.41l0.95,0.25l0.47,0.86c2,3.7,3.2,7.7,3.58,11.91c0.03,0.31,0.05,0.63,0.06,0.94
			l0.24,4.5l-3.67-2.32c-2.66-1.68-7.05-2.8-11.28-3.3c6.11,2.14,11.05,6.24,13.25,9.94l0.51,0.85l-0.29,0.95
			c-1.3,4.33-3.59,8.41-6.62,11.78l-2.9,3.23l-0.95-4.24c-0.69-3.07-3.01-6.97-5.65-10.31c2.81,5.83,3.41,12.24,2.35,16.41
			l-0.25,0.95l-0.86,0.47c-3.7,2-7.71,3.2-11.91,3.58c-0.38,0.03-0.75,0.05-1.12,0.07L377.63,274.57z M387.34,253.72
			c0.16,4.98-0.74,11.68-2.79,16.54c2.79-0.44,5.46-1.3,7.98-2.58c0.74-3.96-0.23-10.21-3.47-15.4
			C388.53,252.81,387.95,253.29,387.34,253.72z M364.46,265.43c2.28,1.65,4.81,2.95,7.46,3.82c3.32-2.28,7.05-7.38,8.43-13.33
			c-0.75,0-1.49-0.07-2.24-0.21C374.71,259.34,369.35,263.43,364.46,265.43z M392.45,245.8c3.64,3.41,7.73,8.78,9.72,13.66
			c1.65-2.27,2.95-4.81,3.82-7.46c-2.28-3.33-7.38-7.05-13.33-8.43C392.66,244.31,392.59,245.06,392.45,245.8z M356.24,255.79
			c1.34,0.25,2.92,0.31,4.59,0.16c3.78-0.34,7.62-1.64,10.81-3.63c-0.53-0.53-1.01-1.11-1.44-1.72c-4.99,0.16-11.68-0.74-16.54-2.79
			C354.1,250.59,354.96,253.27,356.24,255.79z M376.81,251.45l1.34,0.35c0.98,0.26,1.97,0.35,2.94,0.26
			c0.23-0.02,0.49-0.06,0.78-0.11l1.54-0.28l0-0.04l1.19-0.69c1.09-0.63,2.04-1.51,2.74-2.52l0.89-1.28l-0.03-0.03l0.36-1.34
			c0.26-0.97,0.35-1.96,0.26-2.93c-0.02-0.23-0.06-0.48-0.11-0.79l-0.28-1.53l-0.04,0l-0.7-1.19c-0.63-1.09-1.51-2.04-2.52-2.74
			l-1.28-0.88l-0.03,0.03l-1.34-0.36c-1.2-0.32-2.49-0.37-3.72-0.15l-1.53,0.28l0,0.04l-1.19,0.69c-1.09,0.64-2.04,1.51-2.74,2.53
			l-0.89,1.28l0.03,0.03l-0.35,1.34c-0.26,0.98-0.35,1.97-0.26,2.94c0.02,0.23,0.06,0.48,0.11,0.79l0.28,1.53l0.04,0l0.7,1.2
			c0.63,1.09,1.51,2.04,2.52,2.74l1.29,0.89L376.81,251.45z M354.67,235.18c2.28,3.32,7.38,7.05,13.33,8.43
			c0-0.75,0.07-1.49,0.21-2.24c-3.64-3.41-7.73-8.77-9.72-13.65C356.84,229.99,355.54,232.53,354.67,235.18z M391.61,236.56
			c4.83,0,10.9,0.91,15.4,2.81c-0.44-2.79-1.3-5.47-2.58-7.98c-1.34-0.25-2.92-0.31-4.59-0.16c-3.78,0.34-7.61,1.64-10.8,3.63
			c0.53,0.53,1.01,1.11,1.44,1.73C390.83,236.57,391.22,236.56,391.61,236.56z M368.13,219.49c-0.74,3.97,0.23,10.21,3.47,15.4
			c0.53-0.53,1.11-1.01,1.72-1.44c-0.16-4.98,0.74-11.68,2.79-16.54C373.32,217.35,370.65,218.22,368.13,219.49z M380.31,231.27
			c0.75,0,1.5,0.07,2.23,0.2c3.41-3.64,8.78-7.73,13.66-9.72c-2.27-1.65-4.81-2.95-7.46-3.82
			C385.41,220.21,381.68,225.32,380.31,231.27C380.3,231.27,380.31,231.27,380.31,231.27z M380.32,250.53
			c-1.62,0-3.18-0.56-4.44-1.62h0c-1.42-1.19-2.3-2.86-2.46-4.71c-0.16-1.85,0.4-3.65,1.59-5.07c1.19-1.42,2.86-2.3,4.71-2.46
			c1.85-0.16,3.65,0.4,5.07,1.59c2.94,2.46,3.33,6.84,0.87,9.78c-1.19,1.42-2.86,2.3-4.71,2.46
			C380.74,250.52,380.53,250.53,380.32,250.53z M378.32,245.99c0.64,0.54,1.46,0.79,2.29,0.72c0.83-0.07,1.59-0.47,2.12-1.11
			c1.11-1.32,0.93-3.3-0.39-4.41c-0.64-0.54-1.45-0.79-2.29-0.72c-0.83,0.07-1.59,0.47-2.12,1.11c-0.54,0.64-0.79,1.45-0.72,2.29
			C377.29,244.7,377.68,245.45,378.32,245.99L378.32,245.99z"/>
		<path class="st1" d="M144.72,220.07l-12.57,51.24h-17.52l-7.05-31.4l-7.2,31.4H82.87l-22.09-65.74h15.41l15.62,49.53l8.07-35.03
			h15.63l7.85,34.74l5.96-34.74H144.72z"/>
		<path class="st1" d="M165.65,220.07v51.24h-14.24v-51.24H165.65z"/>
		<path class="st1" d="M200.39,271.31l-10.18-18.9h-1.53v18.9h-14.25v-51.24h22.46c4.12,0,7.61,0.72,10.47,2.14
			c2.86,1.43,5.02,3.39,6.47,5.89c1.45,2.5,2.18,5.3,2.18,8.39c0,3.49-0.96,6.55-2.87,9.19c-1.91,2.64-4.71,4.52-8.39,5.63
			l11.56,19.99H200.39z M188.69,242.67h7.05c1.94,0,3.39-0.46,4.36-1.38c0.97-0.92,1.45-2.25,1.45-4c0-1.65-0.5-2.94-1.49-3.89
			c-0.99-0.95-2.44-1.42-4.32-1.42h-7.05V242.67z"/>
		<path class="st1" d="M264.86,280.73l-22.11-30.91v30.91h-19.61V210.2h19.61v30.41l21.91-30.41h22.61l-25.91,34.21l27.21,36.31
			H264.86z"/>
		<path class="st1" d="M302.95,220.07v51.24h-14.24v-51.24H302.95z"/>
		<path class="st1" d="M494.46,220.07v11.34H480.8v39.9h-14.25v-39.9h-13.52v-11.34H494.46z"/>
		<path class="st0" d="M295.83,248.8c-2.58,0-4.68-2.1-4.68-4.68s2.1-4.68,4.68-4.68c2.58,0,4.68,2.1,4.68,4.68
			S298.41,248.8,295.83,248.8z M295.83,240.38c-2.06,0-3.73,1.67-3.73,3.73s1.67,3.73,3.73,3.73s3.73-1.67,3.73-3.73
			S297.89,240.38,295.83,240.38z"/>
		<rect x="295.35" y="217.46" class="st0" width="0.95" height="22.49"/>
		<path class="st1" d="M340.94,248.34c-0.05-0.41-0.1-0.82-0.14-1.23c-0.04-0.41-0.06-0.82-0.08-1.23c0.76-0.36,1.66-0.72,2.54-1.08
			c1.16-0.47,2.36-0.95,3.24-1.43l0.17-0.09l0-0.2c0.01-0.82,0.06-1.69,0.15-2.65l0.02-0.19l-0.16-0.11
			c-0.84-0.59-2.02-1.22-3.17-1.82c-0.81-0.43-1.64-0.87-2.33-1.29c0.13-0.74,0.28-1.52,0.48-2.37c0.82-0.13,1.78-0.22,2.71-0.31
			c1.26-0.12,2.56-0.25,3.54-0.46l0.19-0.04l0.06-0.19c0.26-0.83,0.56-1.67,0.89-2.51l0.07-0.18l-0.12-0.15
			c-0.64-0.8-1.59-1.73-2.5-2.63c-0.66-0.64-1.33-1.31-1.88-1.91c0.35-0.71,0.72-1.43,1.13-2.14c0.82,0.11,1.76,0.29,2.67,0.46
			c1.25,0.24,2.55,0.49,3.56,0.56l0.2,0.01l0.11-0.16c0.48-0.73,1.01-1.45,1.56-2.16l0.12-0.15l-0.08-0.18
			c-0.39-0.94-1.03-2.09-1.66-3.21c-0.45-0.81-0.91-1.64-1.28-2.38c0.55-0.6,1.11-1.19,1.68-1.74c0.75,0.33,1.6,0.77,2.42,1.19
			c1.14,0.58,2.32,1.19,3.27,1.54l0.18,0.07l0.15-0.13c0.67-0.57,1.38-1.12,2.1-1.63l0.16-0.12l-0.02-0.19
			c-0.11-1-0.4-2.29-0.68-3.53c-0.21-0.91-0.42-1.84-0.56-2.66c0.72-0.44,1.41-0.84,2.1-1.2c0.62,0.53,1.31,1.18,1.97,1.81
			c0.93,0.89,1.9,1.8,2.72,2.42l0.16,0.12l0.18-0.08c0.86-0.38,1.67-0.7,2.47-0.98l0.19-0.06l0.03-0.19
			c0.18-0.99,0.26-2.29,0.34-3.55c0.06-0.94,0.12-1.9,0.22-2.73c0.84-0.23,1.61-0.41,2.36-0.56c0.44,0.68,0.91,1.49,1.37,2.27
			c0.65,1.12,1.32,2.28,1.94,3.11l0.12,0.16l0.19-0.03c0.88-0.12,1.78-0.19,2.67-0.24l0.2-0.01l0.09-0.18
			c0.46-0.92,0.92-2.19,1.36-3.41c0.31-0.85,0.63-1.73,0.94-2.48c0.76,0.02,1.56,0.06,2.42,0.14c0.24,0.8,0.47,1.73,0.7,2.64
			c0.3,1.23,0.61,2.5,0.96,3.44l0.07,0.18l0.19,0.03c0.83,0.13,1.69,0.3,2.61,0.52l0.19,0.05l0.13-0.14
			c0.7-0.75,1.48-1.82,2.25-2.86c0.54-0.74,1.11-1.51,1.62-2.14c0.75,0.24,1.5,0.51,2.28,0.81c0.01,0.83-0.04,1.79-0.08,2.72
			c-0.06,1.27-0.12,2.58-0.05,3.59l0.01,0.2l0.18,0.08c0.79,0.37,1.58,0.79,2.35,1.24l0.17,0.1l0.17-0.1
			c0.87-0.52,1.93-1.32,2.95-2.1c0.73-0.56,1.49-1.14,2.17-1.6c0.66,0.45,1.32,0.92,1.96,1.42c-0.22,0.79-0.53,1.69-0.83,2.57
			c-0.42,1.21-0.85,2.46-1.06,3.45l-0.04,0.19l0.15,0.13c0.66,0.59,1.31,1.21,1.91,1.85l0.14,0.14l0.19-0.05
			c0.98-0.25,2.21-0.73,3.4-1.18c0.87-0.33,1.76-0.68,2.54-0.93c0.52,0.63,1.02,1.27,1.49,1.91c-0.43,0.69-0.98,1.47-1.51,2.22
			c-0.74,1.05-1.51,2.14-2,3.03l-0.09,0.17l0.1,0.17c0.48,0.77,0.92,1.54,1.32,2.31l0.09,0.17l0.2,0.01
			c1.01,0.03,2.31-0.07,3.57-0.17c0.93-0.08,1.89-0.15,2.72-0.17c0.34,0.8,0.64,1.54,0.89,2.25c-0.61,0.54-1.35,1.12-2.07,1.69
			c-1.02,0.8-2.06,1.63-2.79,2.35l-0.14,0.14l0.05,0.19c0.26,0.94,0.46,1.78,0.62,2.59l0.04,0.19l0.19,0.06
			c0.95,0.31,2.21,0.58,3.44,0.83c0.93,0.19,1.88,0.39,2.69,0.61c0.05,0.41,0.1,0.81,0.14,1.23c0.04,0.4,0.06,0.8,0.08,1.23
			c-0.76,0.36-1.66,0.72-2.54,1.07c-1.16,0.47-2.37,0.95-3.24,1.43l-0.17,0.09l0,0.2c-0.01,0.82-0.06,1.69-0.15,2.65l-0.02,0.19
			l0.16,0.11c0.84,0.59,2.02,1.21,3.16,1.82c0.81,0.43,1.64,0.87,2.34,1.29c-0.13,0.75-0.28,1.53-0.48,2.37
			c-0.82,0.13-1.78,0.22-2.71,0.31c-1.26,0.12-2.56,0.25-3.55,0.46l-0.19,0.04l-0.06,0.19c-0.26,0.83-0.56,1.67-0.89,2.5l-0.07,0.18
			l0.12,0.15c0.64,0.79,1.59,1.72,2.5,2.62c0.66,0.65,1.34,1.31,1.89,1.92c-0.35,0.71-0.72,1.43-1.13,2.14
			c-0.82-0.11-1.76-0.29-2.67-0.46c-1.25-0.24-2.55-0.49-3.56-0.56l-0.2-0.02l-0.11,0.16c-0.48,0.73-1.01,1.45-1.56,2.16l-0.12,0.15
			l0.08,0.18c0.39,0.94,1.03,2.09,1.66,3.21c0.45,0.81,0.92,1.64,1.28,2.38c-0.55,0.6-1.11,1.19-1.68,1.74
			c-0.75-0.33-1.6-0.77-2.42-1.19c-1.14-0.58-2.32-1.19-3.27-1.54l-0.18-0.07l-0.15,0.13c-0.68,0.57-1.38,1.12-2.1,1.63l-0.16,0.11
			l0.02,0.2c0.11,1,0.4,2.28,0.69,3.52c0.21,0.91,0.42,1.85,0.56,2.66c-0.72,0.44-1.41,0.84-2.1,1.2c-0.62-0.53-1.31-1.18-1.97-1.81
			c-0.93-0.89-1.9-1.8-2.72-2.42l-0.16-0.12l-0.18,0.08c-0.86,0.38-1.67,0.7-2.47,0.98l-0.19,0.06l-0.03,0.19
			c-0.18,0.99-0.26,2.29-0.34,3.55c-0.06,0.94-0.12,1.9-0.22,2.73c-0.84,0.23-1.61,0.41-2.36,0.56c-0.44-0.68-0.91-1.48-1.36-2.27
			c-0.65-1.13-1.32-2.29-1.94-3.11l-0.12-0.16l-0.19,0.03c-0.89,0.11-1.78,0.19-2.68,0.24l-0.2,0.01l-0.09,0.17
			c-0.46,0.92-0.92,2.18-1.36,3.4c-0.31,0.85-0.63,1.73-0.94,2.48c-0.76-0.02-1.56-0.06-2.42-0.14c-0.24-0.8-0.47-1.74-0.7-2.65
			c-0.3-1.22-0.61-2.49-0.96-3.43l-0.07-0.18l-0.19-0.03c-0.84-0.13-1.69-0.3-2.61-0.52l-0.19-0.05l-0.13,0.14
			c-0.7,0.75-1.49,1.82-2.25,2.86c-0.54,0.74-1.1,1.5-1.62,2.13c-0.74-0.24-1.51-0.51-2.28-0.81c-0.01-0.83,0.04-1.79,0.08-2.72
			c0.06-1.27,0.12-2.58,0.05-3.59l-0.01-0.2l-0.18-0.08c-0.79-0.37-1.58-0.79-2.35-1.24l-0.17-0.1l-0.17,0.1
			c-0.88,0.52-1.93,1.32-2.95,2.1c-0.74,0.56-1.49,1.14-2.17,1.6c-0.66-0.45-1.32-0.93-1.96-1.42c0.22-0.79,0.53-1.69,0.83-2.57
			c0.42-1.21,0.85-2.46,1.06-3.45l0.04-0.19l-0.15-0.13c-0.66-0.58-1.3-1.2-1.91-1.84l-0.14-0.14l-0.19,0.05
			c-0.98,0.25-2.21,0.72-3.4,1.18c-0.87,0.33-1.76,0.68-2.54,0.93c-0.53-0.63-1.03-1.28-1.49-1.91c0.44-0.69,0.98-1.47,1.52-2.22
			c0.74-1.05,1.51-2.13,2-3.03l0.09-0.17l-0.1-0.17c-0.47-0.76-0.92-1.53-1.32-2.31l-0.09-0.17l-0.2-0.01
			c-1.01-0.03-2.31,0.07-3.57,0.17c-0.93,0.08-1.9,0.15-2.73,0.17c-0.34-0.8-0.64-1.54-0.89-2.25c0.61-0.53,1.35-1.12,2.06-1.68
			c1.02-0.8,2.07-1.63,2.8-2.36l0.14-0.14l-0.05-0.19c-0.26-0.94-0.46-1.78-0.62-2.59l-0.04-0.19l-0.19-0.06
			c-0.95-0.31-2.22-0.58-3.45-0.83C342.7,248.76,341.75,248.56,340.94,248.34z M382.61,254.21l0.06-0.46l-0.46,0.08
			c-0.35,0.06-0.66,0.11-0.96,0.13c-1.19,0.11-2.4,0-3.6-0.32l-0.2-0.05l-0.14,0.16c-3.85,4.36-10.95,9.57-16.17,10.75l-0.63,0.14
			l0.48,0.43c3.17,2.85,6.99,5,11.06,6.21l0.14,0.04l0.13-0.08C376.63,268.69,381.54,262.02,382.61,254.21z M377.1,247.45
			c1.03,0.86,2.34,1.27,3.68,1.15c1.34-0.12,2.55-0.75,3.42-1.79c1.78-2.13,1.5-5.31-0.63-7.09c-1.03-0.86-2.34-1.27-3.68-1.15
			c-1.34,0.12-2.55,0.75-3.42,1.79c-0.86,1.03-1.27,2.34-1.15,3.68C375.43,245.37,376.07,246.59,377.1,247.45z M389.45,249.49
			l-0.28-0.37l-0.26,0.38c-0.86,1.25-2.02,2.31-3.35,3.09l-0.18,0.1l0.01,0.21c0.36,5.8-0.98,14.51-3.83,19.03l-0.35,0.55l0.65-0.03
			c0.35-0.02,0.69-0.04,1.04-0.07c3.94-0.35,7.7-1.48,11.17-3.35l0.13-0.07l0.04-0.14C395.46,263.96,394.22,255.77,389.45,249.49z
			 M408.07,251.72l-0.08-0.13c-2.56-4.3-9.24-9.21-17.04-10.28l-0.46-0.06l0.08,0.46c0.06,0.31,0.1,0.63,0.13,0.96
			c0.11,1.19,0,2.4-0.32,3.6l-0.05,0.2l0.16,0.14c4.36,3.85,9.57,10.95,10.74,16.17l0.14,0.63l0.43-0.48
			c2.85-3.17,5-6.99,6.21-11.06L408.07,251.72z M399.66,229.33c-4.8,0.43-9.69,2.3-13.43,5.14l-0.37,0.28l0.38,0.26
			c1.25,0.86,2.32,2.02,3.09,3.35l0.1,0.18l0.21-0.01c5.8-0.36,14.51,0.98,19.03,3.84l0.55,0.35l-0.04-0.78
			c-0.02-0.3-0.03-0.61-0.06-0.91c-0.35-3.95-1.48-7.7-3.35-11.17l-0.07-0.13l-0.14-0.04C403.87,229.26,401.83,229.13,399.66,229.33
			z M378.05,232.97l-0.06,0.46l0.46-0.08c1.47-0.27,3.04-0.22,4.55,0.18l0.2,0.05l0.14-0.16c3.85-4.36,10.95-9.57,16.17-10.75
			l0.63-0.14l-0.48-0.43c-3.17-2.85-6.99-5-11.06-6.21l-0.14-0.04l-0.13,0.08C384.03,218.48,379.12,225.16,378.05,232.97z
			 M371.21,237.68l0.28,0.37l0.26-0.38c0.86-1.25,2.02-2.31,3.35-3.09l0.18-0.1l-0.01-0.21c-0.36-5.8,0.98-14.5,3.83-19.03
			l0.35-0.55l-0.74,0.04c-0.32,0.02-0.63,0.03-0.95,0.06c-3.94,0.35-7.7,1.48-11.17,3.35l-0.13,0.07l-0.04,0.14
			C365.2,223.21,366.44,231.41,371.21,237.68z M352.59,235.46l0.08,0.13c2.56,4.3,9.24,9.21,17.04,10.28l0.46,0.06l-0.08-0.46
			c-0.07-0.36-0.11-0.66-0.13-0.96c-0.11-1.19,0-2.4,0.32-3.6l0.05-0.2l-0.16-0.14c-4.36-3.85-9.57-10.95-10.74-16.17l-0.14-0.63
			l-0.43,0.48c-2.85,3.17-5,6.99-6.21,11.06L352.59,235.46z M351.54,246.16c0.35,3.94,1.48,7.7,3.35,11.17l0.07,0.13l0.14,0.04
			c1.68,0.43,3.72,0.55,5.9,0.36c4.8-0.43,9.69-2.3,13.43-5.14l0.37-0.28l-0.38-0.26c-1.25-0.86-2.31-2.02-3.09-3.35l-0.1-0.18
			l-0.21,0.01c-5.8,0.36-14.5-0.98-19.03-3.83l-0.55-0.35l0.04,0.78C351.49,245.55,351.51,245.85,351.54,246.16z"/>
	</g>
</g>
</svg>
